<mxfile host="Electron" modified="2023-07-03T19:11:48.988Z" agent="Mozilla/5.0 (Windows NT 10.0; Win64; x64) AppleWebKit/537.36 (KHTML, like Gecko) draw.io/21.5.1 Chrome/112.0.5615.204 Electron/24.6.0 Safari/537.36" etag="ZQv69T3IvpGfOyXkyS0V" version="21.5.1" type="device">
  <diagram name="Strona-1" id="uyKGH_IePtkEnGAkP2wR">
    <mxGraphModel dx="1816" dy="582" grid="1" gridSize="10" guides="1" tooltips="1" connect="1" arrows="1" fold="1" page="1" pageScale="1" pageWidth="827" pageHeight="1169" math="0" shadow="0">
      <root>
        <mxCell id="0" />
        <mxCell id="1" parent="0" />
        <mxCell id="6AdEzSm5FdYwFmk16yyQ-2" value="&lt;b&gt;&lt;font style=&quot;font-size: 20px;&quot;&gt;Zawodnik&lt;/font&gt;&lt;/b&gt;&lt;br&gt;&lt;div style=&quot;text-align: left;&quot;&gt;&lt;span style=&quot;background-color: initial;&quot;&gt;- Imie i nazwisko&lt;/span&gt;&lt;/div&gt;&lt;div style=&quot;text-align: left;&quot;&gt;&lt;span style=&quot;background-color: initial;&quot;&gt;- Pozycja&lt;/span&gt;&lt;/div&gt;&lt;div style=&quot;text-align: left;&quot;&gt;&lt;span style=&quot;background-color: initial;&quot;&gt;- Data urodzenia&lt;/span&gt;&lt;/div&gt;" style="ellipse;whiteSpace=wrap;html=1;aspect=fixed;align=center;" parent="1" vertex="1">
          <mxGeometry x="80" y="200" width="134" height="134" as="geometry" />
        </mxCell>
        <mxCell id="6AdEzSm5FdYwFmk16yyQ-3" value="&lt;b&gt;&lt;font style=&quot;font-size: 20px;&quot;&gt;Stadion&lt;/font&gt;&lt;/b&gt;&lt;br&gt;&lt;div style=&quot;text-align: left;&quot;&gt;&lt;span style=&quot;background-color: initial;&quot;&gt;- Nazwa&lt;/span&gt;&lt;/div&gt;&lt;div style=&quot;text-align: left;&quot;&gt;&lt;span style=&quot;background-color: initial;&quot;&gt;- Pojemność&lt;/span&gt;&lt;/div&gt;" style="ellipse;whiteSpace=wrap;html=1;aspect=fixed;align=center;" parent="1" vertex="1">
          <mxGeometry x="-24" y="114" width="114" height="114" as="geometry" />
        </mxCell>
        <mxCell id="6AdEzSm5FdYwFmk16yyQ-4" value="&lt;font style=&quot;&quot;&gt;&lt;span style=&quot;font-size: 20px;&quot;&gt;&lt;b&gt;Trofeum&lt;/b&gt;&lt;/span&gt;&lt;/font&gt;&lt;br&gt;&lt;div style=&quot;text-align: left;&quot;&gt;&lt;span style=&quot;background-color: initial;&quot;&gt;- Nazwa&lt;/span&gt;&lt;/div&gt;&lt;div style=&quot;text-align: left;&quot;&gt;&lt;span style=&quot;background-color: initial;&quot;&gt;- Sezon&lt;/span&gt;&lt;/div&gt;" style="ellipse;whiteSpace=wrap;html=1;aspect=fixed;align=center;" parent="1" vertex="1">
          <mxGeometry x="200" y="130" width="114" height="114" as="geometry" />
        </mxCell>
        <mxCell id="6AdEzSm5FdYwFmk16yyQ-5" value="&lt;span style=&quot;font-size: 20px;&quot;&gt;&lt;b&gt;Kraj&lt;/b&gt;&lt;/span&gt;&lt;br&gt;&lt;div style=&quot;text-align: left;&quot;&gt;&lt;span style=&quot;background-color: initial;&quot;&gt;- Nazwa&lt;/span&gt;&lt;/div&gt;" style="ellipse;whiteSpace=wrap;html=1;aspect=fixed;align=center;" parent="1" vertex="1">
          <mxGeometry x="480" y="190" width="80" height="80" as="geometry" />
        </mxCell>
        <mxCell id="6AdEzSm5FdYwFmk16yyQ-6" value="&lt;span style=&quot;font-size: 20px;&quot;&gt;&lt;b&gt;Trener&lt;/b&gt;&lt;/span&gt;&lt;br&gt;&lt;div style=&quot;text-align: left;&quot;&gt;&lt;span style=&quot;background-color: initial;&quot;&gt;- Imie i nazwisko&lt;/span&gt;&lt;/div&gt;&lt;div style=&quot;text-align: left;&quot;&gt;&lt;span style=&quot;background-color: initial;&quot;&gt;- Wiek&lt;/span&gt;&lt;/div&gt;" style="ellipse;whiteSpace=wrap;html=1;aspect=fixed;align=center;" parent="1" vertex="1">
          <mxGeometry x="320" y="20" width="114" height="114" as="geometry" />
        </mxCell>
        <mxCell id="6AdEzSm5FdYwFmk16yyQ-7" value="&lt;b&gt;&lt;font style=&quot;font-size: 20px;&quot;&gt;Klub&lt;/font&gt;&lt;/b&gt;&lt;br&gt;&lt;div style=&quot;text-align: left;&quot;&gt;&lt;span style=&quot;background-color: initial;&quot;&gt;- Nazwa&lt;/span&gt;&lt;/div&gt;" style="ellipse;whiteSpace=wrap;html=1;aspect=fixed;align=center;" parent="1" vertex="1">
          <mxGeometry x="90" width="114" height="114" as="geometry" />
        </mxCell>
        <mxCell id="aqH-RVZ6Bm7Ls6vqyufo-2" value="" style="endArrow=classic;html=1;rounded=0;" edge="1" parent="1" source="6AdEzSm5FdYwFmk16yyQ-5" target="6AdEzSm5FdYwFmk16yyQ-4">
          <mxGeometry width="50" height="50" relative="1" as="geometry">
            <mxPoint x="560" y="60" as="sourcePoint" />
            <mxPoint x="320" y="210" as="targetPoint" />
          </mxGeometry>
        </mxCell>
        <mxCell id="aqH-RVZ6Bm7Ls6vqyufo-4" value="wygrali:&lt;br style=&quot;border-color: var(--border-color);&quot;&gt;- sezon" style="edgeLabel;html=1;align=center;verticalAlign=middle;resizable=0;points=[];" vertex="1" connectable="0" parent="aqH-RVZ6Bm7Ls6vqyufo-2">
          <mxGeometry x="0.1641" relative="1" as="geometry">
            <mxPoint as="offset" />
          </mxGeometry>
        </mxCell>
        <mxCell id="aqH-RVZ6Bm7Ls6vqyufo-5" value="" style="endArrow=classic;html=1;rounded=0;" edge="1" parent="1" source="6AdEzSm5FdYwFmk16yyQ-7" target="6AdEzSm5FdYwFmk16yyQ-5">
          <mxGeometry width="50" height="50" relative="1" as="geometry">
            <mxPoint x="694" y="64" as="sourcePoint" />
            <mxPoint x="390" y="190" as="targetPoint" />
          </mxGeometry>
        </mxCell>
        <mxCell id="aqH-RVZ6Bm7Ls6vqyufo-6" value="należy:&lt;br style=&quot;border-color: var(--border-color);&quot;&gt;- nazwa ligi" style="edgeLabel;html=1;align=center;verticalAlign=middle;resizable=0;points=[];" vertex="1" connectable="0" parent="aqH-RVZ6Bm7Ls6vqyufo-5">
          <mxGeometry x="0.1641" relative="1" as="geometry">
            <mxPoint as="offset" />
          </mxGeometry>
        </mxCell>
        <mxCell id="aqH-RVZ6Bm7Ls6vqyufo-7" value="" style="endArrow=classic;html=1;rounded=0;" edge="1" parent="1" source="6AdEzSm5FdYwFmk16yyQ-3" target="6AdEzSm5FdYwFmk16yyQ-7">
          <mxGeometry width="50" height="50" relative="1" as="geometry">
            <mxPoint x="60" y="90" as="sourcePoint" />
            <mxPoint x="-109.5" y="40" as="targetPoint" />
          </mxGeometry>
        </mxCell>
        <mxCell id="aqH-RVZ6Bm7Ls6vqyufo-8" value="należy" style="edgeLabel;html=1;align=center;verticalAlign=middle;resizable=0;points=[];" vertex="1" connectable="0" parent="aqH-RVZ6Bm7Ls6vqyufo-7">
          <mxGeometry x="0.1641" relative="1" as="geometry">
            <mxPoint as="offset" />
          </mxGeometry>
        </mxCell>
        <mxCell id="aqH-RVZ6Bm7Ls6vqyufo-9" value="" style="endArrow=classic;html=1;rounded=0;" edge="1" parent="1" source="6AdEzSm5FdYwFmk16yyQ-2" target="6AdEzSm5FdYwFmk16yyQ-7">
          <mxGeometry width="50" height="50" relative="1" as="geometry">
            <mxPoint x="650" y="-40" as="sourcePoint" />
            <mxPoint x="490" y="63" as="targetPoint" />
          </mxGeometry>
        </mxCell>
        <mxCell id="aqH-RVZ6Bm7Ls6vqyufo-10" value="kontrakt:&lt;br style=&quot;border-color: var(--border-color);&quot;&gt;- data&lt;br style=&quot;border-color: var(--border-color);&quot;&gt;- wartość" style="edgeLabel;html=1;align=center;verticalAlign=middle;resizable=0;points=[];" vertex="1" connectable="0" parent="aqH-RVZ6Bm7Ls6vqyufo-9">
          <mxGeometry x="0.1641" relative="1" as="geometry">
            <mxPoint as="offset" />
          </mxGeometry>
        </mxCell>
        <mxCell id="aqH-RVZ6Bm7Ls6vqyufo-11" value="" style="endArrow=classic;html=1;rounded=0;" edge="1" parent="1" source="6AdEzSm5FdYwFmk16yyQ-6" target="6AdEzSm5FdYwFmk16yyQ-5">
          <mxGeometry width="50" height="50" relative="1" as="geometry">
            <mxPoint x="480" y="100" as="sourcePoint" />
            <mxPoint x="460" y="130" as="targetPoint" />
          </mxGeometry>
        </mxCell>
        <mxCell id="aqH-RVZ6Bm7Ls6vqyufo-12" value="pochodzi" style="edgeLabel;html=1;align=center;verticalAlign=middle;resizable=0;points=[];" vertex="1" connectable="0" parent="aqH-RVZ6Bm7Ls6vqyufo-11">
          <mxGeometry x="0.1641" relative="1" as="geometry">
            <mxPoint as="offset" />
          </mxGeometry>
        </mxCell>
        <mxCell id="aqH-RVZ6Bm7Ls6vqyufo-13" value="" style="endArrow=classic;html=1;rounded=0;" edge="1" parent="1" source="6AdEzSm5FdYwFmk16yyQ-6" target="6AdEzSm5FdYwFmk16yyQ-7">
          <mxGeometry width="50" height="50" relative="1" as="geometry">
            <mxPoint x="660" y="-30" as="sourcePoint" />
            <mxPoint x="193" y="19" as="targetPoint" />
          </mxGeometry>
        </mxCell>
        <mxCell id="aqH-RVZ6Bm7Ls6vqyufo-14" value="kontrakt:&lt;br style=&quot;border-color: var(--border-color);&quot;&gt;- data" style="edgeLabel;html=1;align=center;verticalAlign=middle;resizable=0;points=[];" vertex="1" connectable="0" parent="aqH-RVZ6Bm7Ls6vqyufo-13">
          <mxGeometry x="0.1641" relative="1" as="geometry">
            <mxPoint as="offset" />
          </mxGeometry>
        </mxCell>
        <mxCell id="aqH-RVZ6Bm7Ls6vqyufo-15" value="" style="endArrow=classic;html=1;rounded=0;" edge="1" parent="1" source="6AdEzSm5FdYwFmk16yyQ-2" target="6AdEzSm5FdYwFmk16yyQ-5">
          <mxGeometry width="50" height="50" relative="1" as="geometry">
            <mxPoint x="426" y="129" as="sourcePoint" />
            <mxPoint x="503" y="211" as="targetPoint" />
          </mxGeometry>
        </mxCell>
        <mxCell id="aqH-RVZ6Bm7Ls6vqyufo-16" value="pochodzi" style="edgeLabel;html=1;align=center;verticalAlign=middle;resizable=0;points=[];" vertex="1" connectable="0" parent="aqH-RVZ6Bm7Ls6vqyufo-15">
          <mxGeometry x="0.1641" relative="1" as="geometry">
            <mxPoint as="offset" />
          </mxGeometry>
        </mxCell>
        <mxCell id="aqH-RVZ6Bm7Ls6vqyufo-17" value="" style="endArrow=classic;html=1;rounded=0;" edge="1" parent="1" source="6AdEzSm5FdYwFmk16yyQ-7" target="6AdEzSm5FdYwFmk16yyQ-4">
          <mxGeometry width="50" height="50" relative="1" as="geometry">
            <mxPoint x="430" y="350" as="sourcePoint" />
            <mxPoint x="314" y="340" as="targetPoint" />
          </mxGeometry>
        </mxCell>
        <mxCell id="aqH-RVZ6Bm7Ls6vqyufo-18" value="wygrali:&lt;br style=&quot;border-color: var(--border-color);&quot;&gt;- sezon" style="edgeLabel;html=1;align=center;verticalAlign=middle;resizable=0;points=[];" vertex="1" connectable="0" parent="aqH-RVZ6Bm7Ls6vqyufo-17">
          <mxGeometry x="0.1641" relative="1" as="geometry">
            <mxPoint x="-5" y="-6" as="offset" />
          </mxGeometry>
        </mxCell>
      </root>
    </mxGraphModel>
  </diagram>
</mxfile>
